<mxfile host="app.diagrams.net" modified="2023-05-07T16:23:48.127Z" agent="Mozilla/5.0 (Windows NT 10.0; Win64; x64) AppleWebKit/537.36 (KHTML, like Gecko) Chrome/112.0.0.0 Safari/537.36" version="21.1.4" etag="COdFqKgqPBL66i_fGI0f" type="github">
  <diagram name="PÃ¡gina-1" id="bSJGP8Rl3pwdWKhk3Nbw">
    <mxGraphModel>
      <root>
        <mxCell id="0" />
        <mxCell id="1" parent="0" />
      </root>
    </mxGraphModel>
  </diagram>
</mxfile>
